<svg xmlns="http://www.w3.org/2000/svg" width="162.828" height="29.999" viewBox="0 0 162.828 29.999">
  <path id="Union_7" data-name="Union 7" d="M115.424,29.983c-.232.011-.466.016-.7.016h-65.5q-.36,0-.716-.017-.37.016-.741.017c-9.308.03-17.772-6.81-21.65-17.5C23.457,4.989,17.584.114,11.073,0H48.982l.243,0h65.5l.242,0h37.8c-6.448.106-12.273,4.923-14.921,12.365-3.836,10.71-12.272,17.6-21.581,17.632h-.06Q115.814,30,115.424,29.983ZM152.98,0c14.852,0,11.351,0-.211,0ZM10.968,0h.1C-1.583,0-5.617,0,10.968,0Z" transform="translate(-0.001)" fill="#f9f9f9"/>
</svg>
